<?xml version="1.0" encoding="utf-8"?><svg viewBox="0 0 174 191" xmlns="http://www.w3.org/2000/svg" xmlns:xlink="http://www.w3.org/1999/xlink"><style>:root>svg{display:none}:root>svg:target{display:block}</style><svg fill="none" viewBox="0 0 40 40" id="building" xmlns="http://www.w3.org/2000/svg"><circle cx="20" cy="20" r="20" fill="#E4AB39"/><path d="M12 28.998h3.024V18.515L12 19.271v9.727zm.996-8.403h.996v2.564h-.996v-2.564zm0 4.374h.996v3.033h-.996v-3.033zM25.976 15.762v13.236H29V15.006l-3.024.756zm2.028 12.24h-.996v-3.033h.996v3.033zm0-4.687h-.996v-1.358h.996v1.358zm0-3.007h-.996v-2.564h.996v2.564zM19.025 25.964h.977v3.034h-.977v-3.034z" fill="#fff"/><path d="M16.02 28.998h2.01v-4.033h4.94v4.033h2.01V12.002l-8.96 3.014v13.982zm5.955-13.908h.996v2.698h-.996V15.09zm0 4.349h.996v1.358h-.996V19.44zm0 3.007h.996v1.359h-.996v-1.359zm-1.973-6.678h.996v2.028h-.996v-2.028zm0 3.68h.996v1.358h-.996v-1.359zm0 3.007h.996v1.358h-.996v-1.358zm-1.973-6.026h.997v1.359h-.997v-1.359zm0 3.01h.997v1.358h-.997V19.44zm0 3.007h.997v1.359h-.997v-1.359z" fill="#fff"/><path d="M20.998 25.964h.977v3.034h-.977v-3.034z" fill="#fff"/></svg><svg fill="none" viewBox="0 0 44 44" id="burger" xmlns="http://www.w3.org/2000/svg"><rect width="44" height="44" rx="4" fill="#131316"/><path stroke="#fff" stroke-width="2" stroke-linecap="round" d="M13 14h18M13 21h18M13 28h18"/></svg><svg fill="none" viewBox="0 0 40 40" id="calendar" xmlns="http://www.w3.org/2000/svg"><circle cx="20" cy="20" r="20" fill="#E4AB39"/><mask id="ca" maskUnits="userSpaceOnUse" x="9" y="9" width="22" height="20" fill="#000"><path fill="#fff" d="M9 9h22v20H9z"/><path d="M28.333 12h-1.666v-.667a1.333 1.333 0 00-2.667 0V12h-2.667v-.667a1.334 1.334 0 00-2.666 0V12H16v-.667a1.333 1.333 0 10-2.667 0V12h-1.666A1.666 1.666 0 0010 13.667V27a1.667 1.667 0 001.667 1.667H21A.334.334 0 0021 28h-9.333a1.003 1.003 0 01-1-1V16.667h18.666v5.666a.333.333 0 00.667 0v-8.666A1.666 1.666 0 0028.333 12zm-3.666-.667a.667.667 0 011.333 0v2a.667.667 0 01-1.333 0v-2zm-5.334 0a.667.667 0 011.334 0v2a.667.667 0 01-1.334 0v-2zm-5.333 0a.667.667 0 011.333 0v2a.667.667 0 01-1.333 0v-2zM29.333 16H10.667v-2.333a1.003 1.003 0 011-1h1.666v.666a1.333 1.333 0 102.667 0v-.666h2.667v.666a1.334 1.334 0 002.666 0v-.666H24v.666a1.334 1.334 0 002.667 0v-.666h1.666a1.003 1.003 0 011 1V16z"/></mask><path d="M28.333 12h-1.666v-.667a1.333 1.333 0 00-2.667 0V12h-2.667v-.667a1.334 1.334 0 00-2.666 0V12H16v-.667a1.333 1.333 0 10-2.667 0V12h-1.666A1.666 1.666 0 0010 13.667V27a1.667 1.667 0 001.667 1.667H21A.334.334 0 0021 28h-9.333a1.003 1.003 0 01-1-1V16.667h18.666v5.666a.333.333 0 00.667 0v-8.666A1.666 1.666 0 0028.333 12zm-3.666-.667a.667.667 0 011.333 0v2a.667.667 0 01-1.333 0v-2zm-5.334 0a.667.667 0 011.334 0v2a.667.667 0 01-1.334 0v-2zm-5.333 0a.667.667 0 011.333 0v2a.667.667 0 01-1.333 0v-2zM29.333 16H10.667v-2.333a1.003 1.003 0 011-1h1.666v.666a1.333 1.333 0 102.667 0v-.666h2.667v.666a1.334 1.334 0 002.666 0v-.666H24v.666a1.334 1.334 0 002.667 0v-.666h1.666a1.003 1.003 0 011 1V16z" fill="#fff"/><path d="M28.333 12h-1.666v-.667a1.333 1.333 0 00-2.667 0V12h-2.667v-.667a1.334 1.334 0 00-2.666 0V12H16v-.667a1.333 1.333 0 10-2.667 0V12h-1.666A1.666 1.666 0 0010 13.667V27a1.667 1.667 0 001.667 1.667H21A.334.334 0 0021 28h-9.333a1.003 1.003 0 01-1-1V16.667h18.666v5.666a.333.333 0 00.667 0v-8.666A1.666 1.666 0 0028.333 12zm-3.666-.667a.667.667 0 011.333 0v2a.667.667 0 01-1.333 0v-2zm-5.334 0a.667.667 0 011.334 0v2a.667.667 0 01-1.334 0v-2zm-5.333 0a.667.667 0 011.333 0v2a.667.667 0 01-1.333 0v-2zM29.333 16H10.667v-2.333a1.003 1.003 0 011-1h1.666v.666a1.333 1.333 0 102.667 0v-.666h2.667v.666a1.334 1.334 0 002.666 0v-.666H24v.666a1.334 1.334 0 002.667 0v-.666h1.666a1.003 1.003 0 011 1V16z" stroke="#fff" stroke-width=".2" mask="url(#ca)"/><path d="M19.384 19a.717.717 0 00-.717-.717h-1.333a.717.717 0 00-.717.717v1a.716.716 0 00.717.716h1.333a.717.717 0 00.717-.716v-1zm-2 .95v-.9h1.233v.9h-1.233zM15.383 19a.717.717 0 00-.717-.717h-1.333a.717.717 0 00-.717.717v1a.716.716 0 00.717.716h1.333a.717.717 0 00.717-.716v-1zm-2 .95v-.9h1.233v.9h-1.233zM26.667 20.716a.717.717 0 00.717-.716v-1a.717.717 0 00-.717-.717h-1.333a.717.717 0 00-.717.717v1a.716.716 0 00.717.716h1.333zm-1.283-1.666h1.233v.9h-1.233v-.9zM19.384 22a.717.717 0 00-.717-.716h-1.333a.717.717 0 00-.717.716v1a.717.717 0 00.717.717h1.333a.717.717 0 00.717-.717v-1zm-2 .95v-.9h1.233v.9h-1.233zM15.383 22a.717.717 0 00-.717-.716h-1.333a.717.717 0 00-.717.716v1a.717.717 0 00.717.717h1.333a.717.717 0 00.717-.717v-1zm-2 .95v-.9h1.233v.9h-1.233zM18.667 24.284h-1.333a.717.717 0 00-.717.716v1a.717.717 0 00.717.717h1.333a.717.717 0 00.717-.717v-1a.717.717 0 00-.717-.716zm-1.283 1.666v-.9h1.233v.9h-1.233zM21.333 20.716h1.333a.717.717 0 00.717-.716v-1a.717.717 0 00-.717-.717h-1.333a.717.717 0 00-.717.717v1a.716.716 0 00.717.716zm.05-1.666h1.233v.9h-1.233v-.9zM20.616 23a.717.717 0 00.717.717.383.383 0 00.05-.764v-.903h1.283a.383.383 0 100-.767h-1.333a.717.717 0 00-.717.717v1zM14.666 24.284h-1.333a.717.717 0 00-.717.716v1a.717.717 0 00.717.717h1.333a.717.717 0 00.717-.717v-1a.717.717 0 00-.717-.716zm-1.283 1.666v-.9h1.233v.9h-1.233z" fill="#fff" stroke="#fff" stroke-width=".1"/><path d="M25.666 21.284h0a4.384 4.384 0 104.384 4.383v0a4.389 4.389 0 00-4.384-4.384zm0 8a3.617 3.617 0 110-7.234 3.617 3.617 0 010 7.233z" fill="#fff" stroke="#fff" stroke-width=".1"/><path d="M27.558 24.234h0L25 26.793l-1.143-1.144h0a.383.383 0 00-.543.542h.001l1.414 1.415h0a.383.383 0 00.542 0h0l2.828-2.829h.001a.384.384 0 00-.542-.542z" fill="#fff" stroke="#fff" stroke-width=".1"/></svg><svg fill="none" viewBox="0 0 17 17" id="ellipse" xmlns="http://www.w3.org/2000/svg"><circle cx="8.5" cy="8.5" r="7" stroke="#D3D3D3" stroke-width="3"/></svg><svg fill="none" viewBox="0 0 40 40" id="google" xmlns="http://www.w3.org/2000/svg"><circle cx="20" cy="20" r="20" fill="#E4AB39"/><path d="M20.342 18.442V22.4h5.383c-.792 2.138-2.85 3.563-5.225 3.563a5.508 5.508 0 01-5.542-5.542 5.508 5.508 0 015.542-5.542c1.188 0 2.296.396 3.246 1.03l.317.237 2.375-3.088-.317-.237C24.458 11.633 22.558 11 20.5 11c-5.225 0-9.5 4.275-9.5 9.5s4.275 9.5 9.5 9.5 9.5-4.275 9.5-9.5v-1.98h-9.658v-.078z" fill="#fff"/></svg><svg fill="none" viewBox="0 0 110 172" id="ilustrations_1" xmlns="http://www.w3.org/2000/svg"><path d="M45.658 89.707a124.839 124.839 0 00-2.117 16.514 72.71 72.71 0 001.024 17.182 25.57 25.57 0 01.683 10.89c-.705 4.888 1.844 13.211 1.594 20.464-.182 5.311-2.003 8.39-2.094 11.381 0 2.231-.183 5.824 4.825 5.735 3.802 0 2.983-1.094 3.165-5.624.182-4.53-.98-5.735-.433-10.354.546-4.619 3.119-19.727 2.322-26.6a19.843 19.843 0 01-.82-7.387c.365-2.03 3.256-18.879 6.989-26.778 1.753-3.638 1.912-9.908-1.252-10.823-3.62-.96-13.886 5.4-13.886 5.4zM108.281 21.823c-3.074 1.674-5.441 3.548-8.286 2.968-2.846-.58-5.51 2.232-7.126 3.303-1.616 1.071-16.64 14.884-18.893 16.335a38.353 38.353 0 01-8.491 3.838c-1.526.313-5.51.335-6.602-.759a2.38 2.38 0 01-.5-1.383 6.477 6.477 0 01-2.46.892 6.038 6.038 0 01-2.532-.613 5.92 5.92 0 01-2.02-1.618 3.17 3.17 0 01-.91 1.74c-1.73 1.072-4.553-.133-7.65-.29-.432 2.076-1.069 4.129-1.41 6.204-.137.87-.296 1.718-.456 2.544a17.24 17.24 0 01.182 4.463c12.748-3.927 22.605 6.873 22.605 6.873s2.777-3.258 7.944-10.086c3.597-4.754 15.73-14.75 18.78-18.656 1.162-1.473 6.83-8.926 8.287-8.926.887 0 2.936 2.544 3.278 4.284.227 1.138 1.274 1.495 1.73.87.455-.624-1.435-4.462 0-5.132a17.241 17.241 0 004.939-3.526c1.457-1.607.342-3.749-.409-3.325z" fill="#E5C3B7"/><path d="M48.913 47.04a49.854 49.854 0 01-7.42-.982 20.669 20.669 0 01-6.102-2.856c-2.276-1.429-17.254-15.197-18.893-16.335-1.64-1.139-4.303-3.861-7.103-3.303-2.8.558-5.235-1.205-8.309-2.968-.75-.469-1.843 1.763-.318 3.347a18.197 18.197 0 004.94 3.548c1.434.603-.683 4.173 0 5.11.682.938 1.502.268 1.73-.87.341-1.74 2.412-4.262 3.278-4.262 1.41 0 7.147 7.409 8.286 8.926 3.073 3.816 15.137 16.201 16.39 17.607 5.577 6.583 7.853 10.087 7.853 10.087s21.33-1.83 18.666-5.87a33.65 33.65 0 00-12.998-11.18z" fill="#232121"/><path d="M55.925 47.017a6.476 6.476 0 002.458-.892c-.11-1.74-.003-3.486.319-5.2l-6.488-.714a31.83 31.83 0 01-.82 4.463 5.91 5.91 0 001.995 1.675c.784.405 1.65.634 2.535.668z" fill="#D3A197"/><path d="M44.588 96a41.564 41.564 0 017.922-7.297 10.563 10.563 0 019.63-.67c-.001-3.146-3.28-10.934-3.029-13.88.25-2.946 5.6-9.194 6.579-10.421-1.616-2.522-3.688-9.105-13.84-9.864-9.652-.714-10.7 5.512-10.7 5.512s.73 8.926.57 13.077c-.182 4.731-1.139 8.502-1.139 10.89 0 2.009-4.552 7.587-1.593 8.926 2.03.99 3.913 2.243 5.6 3.727z" fill="#232121"/><path d="M60.75 22.716a2.89 2.89 0 01-.853 1.41c-.417.381-.938.635-1.498.732a3.015 3.015 0 01-1.664-.182 2.948 2.948 0 01-1.296-1.038 2.857 2.857 0 01-.083-3.146 2.94 2.94 0 011.239-1.102 3.012 3.012 0 011.651-.267c.818.152 1.541.615 2.01 1.289a3.03 3.03 0 01.494 2.304z" fill="#353535"/><path d="M64.028 33.918c-.136-1.026-1.183-.982-1.57-.915-.114-4.351-2.277-7.765-5.76-8.19-3.483-.423-6.624 2.232-7.648 6.472-.342-.156-1.389-.468-1.776.513a3.001 3.001 0 00-.055 2.074 3.067 3.067 0 001.307 1.63c.002.757.117 1.509.342 2.232 1.07 3.325 3.46 6.026 5.326 6.249 1.867.223 4.69-1.696 6.58-4.776a14.2 14.2 0 001-2.03 3.161 3.161 0 001.722-1.234c.411-.594.6-1.31.532-2.025z" fill="#E5C3B7"/><path d="M57.7 27.759a9.635 9.635 0 01-3.86 2.86 9.827 9.827 0 01-4.79.666l-.683-.179a9.597 9.597 0 012.618-6.917 7.673 7.673 0 015.17-1.831 7.658 7.658 0 015.074 2.076 10.003 10.003 0 011.985 4.075 9.893 9.893 0 01-.027 4.516h-.729a8.51 8.51 0 01-2.972-2.117 8.303 8.303 0 01-1.786-3.149z" fill="#444"/><path d="M65.121 60.987a18.92 18.92 0 012.117-5.445 27.199 27.199 0 015.873-3.37s-2.823 3.66-4.416 5.245l-3.574 3.57zM35.8 52.172c1.647.088 3.265.458 4.781 1.094a5.107 5.107 0 011.252 2.767s1.116-2.544-.614-3.86c-1.184-.804-5.418 0-5.418 0zM46.842 127.242a4.595 4.595 0 002.89 1.25 3.589 3.589 0 001.482-.458 3.508 3.508 0 001.137-1.037s0 3.95-2.413 3.95-3.096-3.705-3.096-3.705z" fill="#D3A197"/><path d="M42.585 69.333a67.055 67.055 0 01.273-11.917c.319-5.132-1.229-11.96-.341-15.286a77.875 77.875 0 001.411-17.183c0-7.185 1.73-14.036 3.483-15.8 3.642-3.681 6.26-5.779 6.169-8.59 0-1.518-4.166.334-5.213 3.748-.706 2.232-3.642.67-7.33 1.094-3.688.424-3.665 2.231-2.276 4.351a13.14 13.14 0 01.318 8.145 142.317 142.317 0 00-5.235 25.686c-.137 3.927-1.98 11.492-2.755 17.049-.53 4.444-.81 8.914-.842 13.39 0 18.231 7.125 19.012 9.106 18.186 1.98-.825 5.668-9.774 3.232-22.873z" fill="#E5C3B7"/><path d="M39.876 41.438a3.782 3.782 0 001.093 2.388c.14.738.14 1.494 0 2.232 0 0-2.914-.96-1.093-4.62z" fill="#D3A197"/><path d="M54.286 70.717c0-.491-.797-1.428 0-2.232a3.07 3.07 0 011.115-.803 2.004 2.004 0 00-.228 1.629c.178.384.241.81.182 1.227 0 0 1.07-.982 1.799-.982.413-.002.826.043 1.23.134a7.28 7.28 0 01-1.185 1.317 2.8 2.8 0 01-1.661.38l1.57.378c.352.177.68.395.98.648a4.962 4.962 0 01-1.936.647 1.636 1.636 0 01-.742-.29 1.593 1.593 0 01-.51-.603c-.046.323-.169.63-.358.898-.19.267-.442.487-.734.642-.706-.402 0-1.384.386-1.942-.25 0-1.365.201-1.889-.2a1.27 1.27 0 01-.41-1.093 8.982 8.982 0 012.39.245zM48.753 75.916c-.478.223-.728 1.473-1.707 1.339a2.979 2.979 0 01-1.32-.402c.288-.021.57-.102.824-.236.255-.135.478-.32.656-.545.5-.736.887-.87.887-.87s-1.434-.268-1.844-.848a4.44 4.44 0 01-.614-1.049 7.1 7.1 0 011.775.156c.537.216.986.6 1.275 1.094 0 0-.478-1.116-.592-1.473a5.423 5.423 0 010-1.16s1.412.647 1.662 1.16a1.56 1.56 0 010 1.518 2.314 2.314 0 011.935 0c0 .803-1.161.825-1.844.847.16.201.979.96.956 1.607a1.301 1.301 0 01-.217.555 1.333 1.333 0 01-.443.405 7.795 7.795 0 01-1.389-2.098zM59.18 64.758a1.06 1.06 0 00-1.116-.111c-.439.147-.902.215-1.366.2 0 0 .638 1.005 1.298.915a2.305 2.305 0 001.024-.357s-.751.848-.637 1.272c.055.249.17.48.337.674.167.195.379.346.619.442a8.774 8.774 0 00.41-1.874c.387.223.387.825.66 1.093.336.214.717.351 1.115.402 0 0 0-1.674-1.275-2.009.592-.2 1.48.179 1.844-.401.145-.26.188-.561.121-.85a1.205 1.205 0 00-.485-.712c-.546.803-.683 1.07-1.593 1.272.113-.224.637-.47.5-1.295-.02-.275-.02-.55 0-.825a2.046 2.046 0 00-1.132.82 1.978 1.978 0 00-.325 1.344zM48.048 66.722a1.012 1.012 0 00-1.092-.111c-.436.16-.902.228-1.366.2 0 0 .637 1.005 1.297.915.36-.029.707-.152 1.002-.357 0 0-.751.848-.615 1.272.055.248.171.48.338.674.166.195.379.346.618.442.194-.612.331-1.239.41-1.875.387.224.387.826.638 1.094.346.212.734.349 1.138.402 0 0 0-1.674-1.275-2.009.592-.2 1.48.179 1.844-.401.145-.26.188-.562.121-.85a1.204 1.204 0 00-.485-.713c-.547.804-.683 1.072-1.594 1.272.114-.223.638-.468.501-1.294-.02-.275-.02-.55 0-.826a2.07 2.07 0 00-1.14.82 2 2 0 00-.34 1.345z" fill="#E4AB39"/><path d="M59.18 72.39a48.152 48.152 0 01-4.167 4.62 15.124 15.124 0 01-6.396 3.57 22.397 22.397 0 01-5.418.848l-.273 2.232s3.87-.491 6.624-1.16a13.332 13.332 0 007.102-5 13.834 13.834 0 002.527-5.11zM47.092 71.23a.522.522 0 01-.639.478.526.526 0 01-.262-.145.51.51 0 01-.104-.556.531.531 0 01.972.02.503.503 0 01.033.203zM44.497 67.771a.507.507 0 01-.339.458.534.534 0 01-.562-.125.51.51 0 01.377-.869.533.533 0 01.379.159.512.512 0 01.145.377zM59.976 69.757a.508.508 0 01-.154.363.529.529 0 01-.74 0 .508.508 0 010-.726.529.529 0 01.74 0 .509.509 0 01.154.363zM56.447 62.527a.508.508 0 01-.153.363.529.529 0 01-.74 0 .509.509 0 010-.726.529.529 0 01.74 0 .508.508 0 01.154.363zM61.32 60.474a.527.527 0 01-.081.303.556.556 0 01-.843.106.533.533 0 01-.13-.586.554.554 0 01.507-.336.534.534 0 01.385.142.512.512 0 01.162.37zM64.575 63.576a.508.508 0 01-.154.363.529.529 0 01-.74 0 .508.508 0 010-.726.529.529 0 01.74 0 .509.509 0 01.153.363zM46.045 78.66a.508.508 0 01-.153.364.529.529 0 01-.74 0 .508.508 0 010-.726.529.529 0 01.74 0 .508.508 0 01.153.363z" fill="#E4AB39"/><path d="M53.307 75.425a.508.508 0 01-.154.363.529.529 0 01-.74 0 .508.508 0 010-.726.53.53 0 01.74 0 .509.509 0 01.154.363zM54.103 66.32a.508.508 0 01-.338.459.533.533 0 01-.563-.125.51.51 0 01.09-.784.531.531 0 01.778.247.505.505 0 01.033.204z" fill="#E4AB39"/></svg><svg fill="none" viewBox="0 0 174 175" id="ilustrations_2" xmlns="http://www.w3.org/2000/svg"><g clip-path="url(#gclip0_21_1014)"><path d="M85.834 85.267a7.56 7.56 0 012.141 6.302c-.439 4.055-5.078 6.603-6.093 11.918a3.668 3.668 0 002.093 4.679c.59.234 1.23.312 1.86.226a5.124 5.124 0 01-3.953 1.096 3.958 3.958 0 01-2.389-1.61 3.94 3.94 0 01-.658-2.801 4.347 4.347 0 00-.714 2.739 4.987 4.987 0 002.306 2.987 4.73 4.73 0 01-4.063-2.521 8.778 8.778 0 01-.439-4.904 14.406 14.406 0 012.059-4.357 4.702 4.702 0 01-2.882 0 3.569 3.569 0 01-2.333-3.096 5.496 5.496 0 006.066-.027c1.208-.658 5.49-4.932 4.062-9.59-.823-2.576 2.937-1.041 2.937-1.041z" fill="#353535"/><path d="M94.618 163.026a8.924 8.924 0 01-2.031-.356c-2.031-.603-9.827-3.069-15.042-4.055a23.947 23.947 0 00-12.71 1.918 207.34 207.34 0 005.49-23.646c.989-7.809-4.611-17.097-8.426-13.699a25.275 25.275 0 00-7.522 12.439c-4.501 13.152-2.744 26.55-2.168 31.674.576 5.123 2.086 5.479 8.4 5.26 5.654-.301 26.323-3.562 34.229-3.534 0-.795.247-1.562.33-2.192a10.26 10.26 0 00-.55-3.809z" fill="#D3A197"/><path d="M98.57 169.219c6.589 2.301 11.667 4.521 15.153 3.753 4.611-.986-1.647-3.315-3.623-4.52a15.987 15.987 0 01-5.161-5.7c-.467-.794-2.745-3.589-5.352-1.287a6.79 6.79 0 01-4.969 1.561 10.26 10.26 0 01.604 3.754c0 .63-.192 1.398-.33 2.192a16.488 16.488 0 013.679.247z" fill="#D3A197"/><path d="M51.249 13.37a22.271 22.271 0 00-3.35 12.742c.3 2.876.898 5.713 1.785 8.466 0 0 4.913.22 4.694-.493-.22-.712 2.745-16.988 2.223-19.7-.521-2.713-2.278-4.138-5.352-1.014zM79.22 83.404c1.18-.877 4.83-8.22 4.254-10.412 0 0 0-.904-2.745-2.22a6.982 6.982 0 00-5.352.302 2.748 2.748 0 01-2.745 0 10.199 10.199 0 00-3.322-.822c-.576 0-.302 1.178-.439 1.644-.137.466-.549.931-1.07.74-.522-.192-.55.246-.66.685-.438-.137-.548 0-.685.466-.138.465 0 .41-.769.575-.769.164-1.098 1.78-.659 2.74.44.959.604 1.205.796 1.589.192.384 1.263 1.945 1.538 2.302a2.27 2.27 0 01-.165 3.014 7.686 7.686 0 01-3.184 2.164 14.163 14.163 0 01-3.816 2.74l6.753 8.22c-.165-.932.906-3.233.933-3.781a6.267 6.267 0 013.486-5.014 32.317 32.317 0 007.85-4.932z" fill="#E5C3B7"/><path d="M63.133 86.555a9.747 9.747 0 004.173-2.549 2.272 2.272 0 00.164-3.013c-.274-.357-1.537-2.302-1.537-2.302.303.523.446 1.123.412 1.726 0 .466-1.043 3.206-6.231 4.055-.055 2.165 3.02 2.083 3.02 2.083z" fill="#D3A197"/><path d="M81.772 71.457a26.111 26.111 0 00-4.282 4.384 6.758 6.758 0 00-.906 4.275c1.62.301 2.224 1.315 2.169 1.945a2.519 2.519 0 01-1.784 1.973 7.476 7.476 0 01-2.47 0s-2.224 3.15-3.35 4.356a6.212 6.212 0 013.404.987 9.074 9.074 0 006.423.383 9.367 9.367 0 005.984-4.822c1.428-2.74 2.58-8.823-5.188-13.48z" fill="#444"/><path d="M60.664 32.03s-1.428 9.37-3.02 20.029c-.302 1.918 2.141 32.879 2.141 32.879l-11.94 10.028a83.168 83.168 0 002.058-15.782c-.247-5.315-2.058-13.7-.494-21.782 1.07-5.48 4.831-24.468 4.831-24.468l6.424-.904z" fill="#D3A197"/><path d="M15.674 162.396a3.15 3.15 0 01-2.031 2.74c-3.98 1.562-10.294 3.179-12.16 4.165-1.867.986-2.745 3.726 1.674 3.726 4.42 0 9.47-.411 11.968-.411 3.239-.164 6.78 1.48 9.36-.767 1.098-.959-.686-5.973-.74-7.727v-1.15a12.223 12.223 0 01-4.393.794 6.808 6.808 0 01-3.678-1.37z" fill="#E5C3B7"/><path d="M55.174 32.715s2.004-7.26 2.443-8.22a12.399 12.399 0 015.215-4.795c3.459-.877 3.569.439 2.745 3.124-.823 2.685-5.352 11.644-5.352 11.644l-5.051-1.753z" fill="#D3A197"/><path d="M60.389 99.816a18.26 18.26 0 005.627 1.808c.247-.438.494-.876.714-1.315a14.14 14.14 0 00.713-9.453 26.166 26.166 0 00-1.784-4.548c-1.811-3.699-5.627-10.713-5.627-15.453a141.527 141.527 0 00-1.976-21.536 140.098 140.098 0 01-3.157-19.755l-6.011 1.753s.137 15.152.659 20.276c.521 5.124 1.674 10.384 2.525 17.399.549 4.63 1.921 12.932-.137 17.919a18.446 18.446 0 002.813 7.375 18.486 18.486 0 005.641 5.53zM60.69 24.988c0 .247.385 2.494 2.334 2.384 1.948-.11 5.6-2.712 2.854-4.274-2.745-1.562-5.188 1.89-5.188 1.89z" fill="#E5C3B7"/><path d="M129.726 114.639a11.736 11.736 0 00-1.784 6.192 43.94 43.94 0 010 5.234h-7.96s-3.432-8.439.384-10.768a13.301 13.301 0 019.36-.658z" fill="#D3A197"/><path d="M94.618 119.461c-.384-1.013-.494-1.616-1.701-2.082a7.207 7.207 0 01-3.596-4.11c-.742-3.096 0-3.671 0-3.671 1.51-1.946 9.607-3.562 10.979-3.179a32.977 32.977 0 018.976 3.179 4.457 4.457 0 004.776 0l.412 6.438a28.681 28.681 0 00-3.019 0h-2.114a8.77 8.77 0 00-1.647.494c-.576 0-1.098 0-1.29.438-.192.438-1.372 3.069-1.372 3.069s-.385.931-.769 1.671-1.839 1.781-2.608 1.178c-.768-.602-.658-.356-.96-.246-.302.109-.632.164-.796-.274-.412.192-.796.493-.989 0-.192-.493-.439-.74-1.235-.411s-1.153 1.096-1.62.712a10.94 10.94 0 01-1.427-3.206z" fill="#E5C3B7"/><path d="M114.464 118.749s-1.016-4.877-2.58-4.768a8.965 8.965 0 00-3.541.987 3.429 3.429 0 00-2.443 2.438c0 .466-.879 2.74-.879 2.74a8.246 8.246 0 013.514-2.11c2-.434 4.089-.183 5.929.713z" fill="#D3A197"/><path d="M101.316 93.624a4.263 4.263 0 014.071 2.393 4.247 4.247 0 01-.654 4.671 4.258 4.258 0 01-6.364-5.656 4.227 4.227 0 012.947-1.408z" fill="#353535"/><path d="M89.128 111.926c2.035.464 4.117.685 6.204.658a6.813 6.813 0 004.008-1.973c-.77-1.507-.33-2.603.22-2.959a2.478 2.478 0 012.744.164 7.165 7.165 0 011.62 1.973s3.925-.246 5.489 0a6.382 6.382 0 01-1.345-3.342 9.45 9.45 0 00-3.733-5.48 9.581 9.581 0 00-7.768-1.644c-2.937.466-8.591 3.425-7.439 12.603z" fill="#444"/><path d="M124.73 166.04v-3.644c.604-5.672-1.784-15.453-2.937-20.029a53.704 53.704 0 01-1.729-17.399c2.688.262 5.402.104 8.042-.465.247 3.178-.302 5.26-.219 8.22a115.69 115.69 0 001.262 16.439 89.823 89.823 0 01.33 16.166v4.302a6.352 6.352 0 01-4.749-3.59z" fill="#232121"/><path d="M125.389 172.616c-2.553 0-5.792.493-8.482.356-2.69-.137-3.788-1.616 0-3.507 3.788-1.89 7.22-2.384 7.686-3.397a9.332 9.332 0 004.721 3.397 3.67 3.67 0 01-1.337 2.352 3.684 3.684 0 01-2.588.799zM114.464 127.955a79.767 79.767 0 01-2.745-.548c-.714-4.658-2.992-12.028-.357-17.097a25.82 25.82 0 015.792-7.371l9.689 3.234 2.745 8.466a25.485 25.485 0 00-8.564 10.96c-.308.78-.573 1.575-.796 2.384a30.493 30.493 0 01-5.764-.028z" fill="#E5C3B7"/><path d="M107.465 169.136a13.731 13.731 0 005.929-2.356 13.28 13.28 0 004.639 3.261 4.158 4.158 0 01-.934 1.726A35.414 35.414 0 01105.68 175c-6.505.082-3.87-4.631 1.785-5.864z" fill="#E5C3B7"/><path d="M113.393 166.78v-.164c1.263-5.973-2.745-18.495-1.921-24.358.615-4.034.79-8.122.521-12.193 0-.849-.164-1.754-.301-2.74.823.192 1.729.384 2.744.548 1.963.191 3.94.191 5.902 0a35.279 35.279 0 00-.576 2.438 47.61 47.61 0 00-.961 14.851c.514 6.385.459 12.804-.165 19.18a32.822 32.822 0 01-.713 5.479 13.27 13.27 0 01-4.53-3.041z" fill="#242424"/><path d="M122.506 76.307c.792.405 1.631.709 2.498.904l-6.725-10.822a8.478 8.478 0 00.336 5.714 8.497 8.497 0 003.891 4.204z" fill="#E5C3B7"/><path d="M163.818 41.099c-7.357-4.932-34.037-22.522-35.904-25.317-4.858-7.288-8.235-13.371-12.27-15.262-5.49-2.493-.878 4.576.165 7.289a20.193 20.193 0 01.824 9.59c-.138 1.15 0 5.699 4.364 5.48a9.344 9.344 0 018.015 3.945c1.565 2.164 7.494 10.521 11.913 15.453a29.993 29.993 0 0014.164 7.727s-4.172.466-9.58 1.589a41.703 41.703 0 00-23.853 10.302 9.202 9.202 0 00-4.502 7.562c-.878 6.604 5.49 15.563 11.803 15.125 6.314-.438.796-5.617 2.745-8.412.168-.23.362-.442.577-.63 4.968-2.52 11.83-7.042 18.967-9.782 13.533-4.931 17.403-7.808 21.411-12.905 2.168-2.794-2.306-7.26-8.839-11.754z" fill="#E5C3B7"/><path d="M137.247 82.993c0-.384 0-.713-.192-1.069-1.812-10.686-3.019-16.878-11.144-19.837 0 0 4.282 14.357-1.071 15.097-11.693 1.617-1.784-16.905-1.784-16.905a11.586 11.586 0 00-10.294 4.165c-2.525 3.616-4.446 13.014 1.675 17.343 1.894 1.343 4.447 1.808 6.039 4.083a9.687 9.687 0 011.454 5.808 10.96 10.96 0 01-1.152 3.919 98.335 98.335 0 01-7.631 12.028s8.234-2.74 10.979 2.411a12.692 12.692 0 011.455 8.357 21.25 21.25 0 009.196-5.782 15.057 15.057 0 004.227-9.671c.165-1.096.274-2.138.329-3.124a65.082 65.082 0 00-2.086-16.823z" fill="#E4AB39"/><path d="M129.726 64.47a25.516 25.516 0 00-12.901-6.52 78.189 78.189 0 01-14.768-6.713l-1.153-.576c-5.023-2.548-12.49-6.22-15.591-9.425a64.474 64.474 0 01-5.71-8.357 32.18 32.18 0 00-5.709-6.932l-.933-.74c-1.51-1.15-14.054-9.069-17.019-11.179-2.964-2.11-2.25-4.904-3.925-5.342-2.745-.685-5.188-.466-6.725-1.918-1.537-1.453-4.831-4.905-7.137-5.179-3.98-.466-3.87 1.507-1.317 4.877a59.94 59.94 0 0010.98 9.563l.439.356c2.744 2.247 5.49 4.548 8.893 7.26a45.178 45.178 0 014.447 4.631c2.36 2.74 5.49 6.247 8.592 10.083 2.305 2.74 5.133 6.795 6.368 8.028 3.047 3.26 7.411 6.603 11.281 10.193 1.153 1.096 2.992 3.315 5.682 5.945a57.864 57.864 0 0014.85 10.768c4.2 2.11 12.051 7.727 18.858 2.932 4.035-2.877 5.819-7.726 2.498-11.754z" fill="#E5C3B7"/><path d="M131.976 105.515a1.23 1.23 0 01-.762 1.139 1.237 1.237 0 01-1.684-.899 1.23 1.23 0 011.211-1.473 1.234 1.234 0 011.235 1.233z" fill="#fff"/><path d="M127.201 76.225a23.253 23.253 0 017.438 8.713c3.843 7.343 3.98 16.44 2.526 19.892-2.416 5.48-6.753 3.535-6.753 3.535a7.7 7.7 0 004.612-5.288c.657-1.872.836-3.878.521-5.837 0 0-1.263 4.467-4.419 5.015-4.173.685-3.925-2.987-3.925-2.987s2.058 2 5.187-1.206c2.581-2.74 1.318-7.699 1.318-7.699a4.784 4.784 0 01-5.298 2.192 2.22 2.22 0 01-1.784-2.192 4.757 4.757 0 005.133-2c.439-.685 1.345-4.247-4.556-12.138z" fill="#fff"/><path d="M128.271 88.856a1.234 1.234 0 100-2.466 1.234 1.234 0 100 2.466zM130.742 96.994a1.237 1.237 0 01-.763 1.139 1.234 1.234 0 11-.472-2.372 1.263 1.263 0 011.235 1.233z" fill="#fff"/><path d="M60.69 17.124s-.164 5.48 3.24 5.974c3.404.493 4.94-.713 2.992-3.754-1.95-3.042-4.831-3.781-6.231-2.22zM49.41 17.207a13.305 13.305 0 011.646-3.316 5.926 5.926 0 012.745-2.219c-.329-.74-.713-1.726-.713-1.726a18.773 18.773 0 00-2.965 2.164c-.823.85-3.074 3.343-3.074 3.343l2.36 1.754zM56.601 14.384s0 4.083-.247 4.96c-.247.877-.466 3.37-.466 3.37l1.153.931s.356-4.219.384-6.438c.027-2.22-.275-2.412-.275-2.412l-.549-.41z" fill="#D3A197"/><path d="M65.165 126.037c-4.2-7.891-15.289-6.877-15.536-6.85l-2.745.384a36.096 36.096 0 00-4.529-2.329 81.447 81.447 0 00-24.32-6.494c-6.011-.52-5.847 5.124-6.56 9.179-.879 4.987 2.552 30.139 4.145 41.784.027.209.027.421 0 .63a6.81 6.81 0 003.678 1.315c1.5.008 2.99-.262 4.392-.794a152.8 152.8 0 012.278-20.385c1.62-6.138-3.404-16.44-3.404-16.44l16.305 9.069c3.816 2.137 6.698 3.59 9.003 4.631 0 0 9.772 5.48 16.388 2.74a16.858 16.858 0 00.905-16.44z" fill="#E5C3B7"/><path d="M64.48 117.817a8.545 8.545 0 01-.55-.849 11.298 11.298 0 01-1.098-7.398 26.525 26.525 0 013.047-7.946 18.281 18.281 0 01-5.49-1.808 18.486 18.486 0 01-5.687-5.518 18.448 18.448 0 01-2.85-7.387v.246c-1.482 3.343-4.419 6.576-6.066 10.769 0 4.246.577 11.836 3.102 14.686 2.992 3.479 6.34 1.753 15.591 5.205z" fill="#E4AB39"/><path d="M44.605 104.775a88.438 88.438 0 002.333 14.823l2.745-.383c.247 0 11.337-1.041 15.537 6.85a16.848 16.848 0 01-.906 16.439 8.56 8.56 0 003.623-2.74c7-9.425 0-17.152-2.91-21.125-.192-.219-.329-.438-.494-.657-9.25-3.562-12.599-1.836-15.7-5.316-2.526-2.74-3.02-10.439-3.102-14.686a15.599 15.599 0 00-1.016 3.699 14.201 14.201 0 00-.11 3.096z" fill="#242424"/></g><defs><clipPath id="gclip0_21_1014"><path fill="#fff" d="M0 0h173.205v175H0z"/></clipPath></defs></svg><svg fill="none" viewBox="0 0 161 175" id="ilustrations_3" xmlns="http://www.w3.org/2000/svg"><g clip-path="url(#hclip0_23_1077)"><path d="M75.186 124.574c-.905-1.944-7.056-2.529-9.771-2.662-.32 0-.586-.799-.213-1.465.958-1.624.958-3.115.426-3.328-.533-.213-.879.32-1.944 1.544a27.632 27.632 0 01-3.54 3.488 52.365 52.365 0 01-5.192 3.861c-3.009 1.358-7.988 2.183-12.54 4.073-3.275 1.358-9.745 5.511-14.43 8.2a31.99 31.99 0 01-3.542 1.624l1.198 8.201a82.55 82.55 0 0110.17-5.325c1.865-.852 10.784-6.443 12.248-7.455 1.464-1.012 8.387-4.872 8.387-4.872a26.428 26.428 0 0111.022-2.662c4.792.718 9.585.692 7.72-3.222z" fill="#D3A197"/><path d="M17.571 59.185L15.841 0h8.732v55.804l-7.002 3.381z" fill="#2AA854"/><path d="M31.683 50.586s10.836-4.1 14.75-5.325a39.748 39.748 0 016.815-2.183c1.598-.266 1.385 1.358-.506 3.248-1.89 1.89-1.304 3.221-3.54 4.526-2.237 1.305-5.325 2.183-5.725 4.127-.4 1.943-2.849 5.085-5.67 4.58a13.924 13.924 0 00-6.337 1.304l.213-10.277zM14.83 73.163c5.51-1.704 4.872-3.62 15.122-11.076v-9.132c-5.99 3.488-15.655 7.455-22.338 11.395a10.383 10.383 0 007.215 8.813z" fill="#E5C3B7"/><path d="M1.091 76.544c2.317 3.7 8.973 11.874 16.188 21.007 8.52 10.649 7.987 15.974 16.507 21.299a8.76 8.76 0 005.484 1.384l3.168-18.237s-1.064 0-3.114-3.568a59.796 59.796 0 00-12.3-15.761 37.913 37.913 0 00-12.195-9.532 10.383 10.383 0 01-7.215-8.812A25.72 25.72 0 001.73 68.77a6.15 6.15 0 00-.639 7.774z" fill="#282828"/><path d="M37.274 161.635a32.577 32.577 0 00-7.988-5.325c-1.997-.772-2.236-2.663-2.29-4.207a9.975 9.975 0 01-.186-2.529l-5.937 3.914c-.426 1.597-6.283-.799-6.283-.799 1.384 1.092 3.567 4.846 5.697 7.055 1.678 1.784 3.887 3.728 3.195 6.177-.133.426-.532.852-.878 1.624-.346.772-.346 2.663.585 2.663.932 0 .693.346.773.639.08.292.24.612.692.505 0 .453 0 .932.665.719.666-.213.852 0 1.065.772.213.773-.186 1.598.4 1.731a11.863 11.863 0 003.434-.745c1.038-.293 1.598-.56 2.663.133a7.271 7.271 0 005.484.452c2.982-1.251 3.009-2.183 3.009-2.183.692-2.13-2.823-9.664-4.1-10.596z" fill="#E5C3B7"/><path d="M49.228 159.052a4.292 4.292 0 10-7.215 4.659 4.295 4.295 0 107.215-4.659z" fill="#353535"/><path d="M39.643 174.015a25.838 25.838 0 01-4.26-4.659 6.765 6.765 0 01-.772-4.287c1.677-.266 2.316-1.304 2.263-1.943a2.478 2.478 0 00-1.757-2.077 6.724 6.724 0 00-2.53 0s-2.183-3.328-3.3-4.606a6.175 6.175 0 003.514-.905 9.928 9.928 0 0112.46 4.845c1.517 2.716 2.502 9.052-5.618 13.632z" fill="#444"/><path d="M21.885 158.2a24.78 24.78 0 01-7.295-3.514c-2.396-2.05-6.15-8.946-3.994-11.928 2.157-2.982 4.446 4.047 5.777 6.789 1.691 2.975 3.53 5.863 5.512 8.653zM155.325 102.21a68.434 68.434 0 00-16.72.266h-.665c-4.18.293-8.227.399-13.312.719a57.86 57.86 0 01-7.429-.506c-4.126-.479-9.451-1.171-15.202-1.943-4.1-.56-9.718-1.81-11.715-1.917H86.21a24.736 24.736 0 01.532 11.395 72.582 72.582 0 0111.609 2.662 36.958 36.958 0 0010.25 1.464c.461.028.923.028 1.384 0 2.183-.186 19.09-3.194 23.243-3.7 4.153-.506 5.751 2.449 7.535 1.517 2.848-1.491 4.792-3.647 7.241-3.567 2.45.08 7.748.372 9.931-1.172 3.861-2.742 2.21-4.34-2.609-5.218z" fill="#E5C3B7"/><path d="M86.288 98.802c-4.313 0-8.999.266-13.578.213a81.74 81.74 0 00-30.591 1.677c-5.325 1.465-16.294 2.663-18.37 12.167-2.078 9.505 7.427 15.975 21.884 8.227a99.738 99.738 0 0119.09-6.416c6.23-1.677 16.533-4.819 22.097-4.473.713-3.788.531-7.69-.532-11.395z" fill="#232121"/><path d="M32.242 142.758c-1.251-2.662-3.488-6.176-4.393-8.652a5.093 5.093 0 01-.426-1.731c0-2.13-.32-7.268 5.325-7.748.637-3.276.519-6.654-.346-9.877a34.62 34.62 0 00-5.325-8.254l-1.172.559a103.923 103.923 0 00-10.197 5.618 13.593 13.593 0 00-2.21 2.077 24.174 24.174 0 00-4.925 12.247 74.754 74.754 0 00-.958 10.836 45.872 45.872 0 00.346 7.987c.585 3.94 4.899 10.144 9.611 10.65-2.662-1.491-5.325-4.26-3.62-3.887 1.703.372 4.925 3.86 7.134 4.499 2.21.639 4.34-.186 8.174-1.384.186-5.618 5.032-7.721 3.568-11.608-.16-.32-.347-.852-.586-1.332z" fill="#E4AB39"/><path d="M96.113 133.546c-.666-2.156-7.002-3.727-9.825-4.366-.346 0-.505-.932 0-1.571 1.252-1.544 1.491-3.142.959-3.408-.533-.266-.959.187-2.263 1.305a31.164 31.164 0 01-4.287 3.115 53.45 53.45 0 01-6.15 3.248c-3.355.958-8.733 1.065-13.791 2.343-3.648.932-11.076 4.26-16.427 6.363-2.13.852-7.295 1.97-11.715 3.009a35.079 35.079 0 00-4.02-7.801 21.11 21.11 0 00-9.957 6.975c-2.05 3.275-.453 6.63.213 8.626.665 1.997 2.981 5.698 6.256 5.698 7.721 0 9.319-2.396 12.727-5.059 2.848-2.236 10.516-4.472 14.11-5.537 2.104-.639 12.327-5.112 14.031-5.964 1.704-.852 9.558-3.834 9.558-3.834s7.562-2.157 11.955-.905c4.952 1.464 9.957 2.183 8.626-2.237z" fill="#E5C3B7"/><path d="M28.541 126.837a11.844 11.844 0 014.286-2.21h1.438L36.395 0h-9.771l1.917 126.837z" fill="#50C97C"/><path d="M22.523 108.759s-6.55-28.248-3.753-37.46c4.18-3.408 5.857-5.005 5.857-5.005s1.225 13.498.985 23.962c0 3.46.24 16.693.24 16.693l-3.329 1.81z" fill="#2AA854"/><path d="M24.28 141.374c-.292.852 0 4.552 1.571 5.325a7.99 7.99 0 004.74-.613 57.558 57.558 0 01-6.31-4.712z" fill="#D3A197"/></g><defs><clipPath id="hclip0_23_1077"><path fill="#fff" d="M0 0h160.091v175H0z"/></clipPath></defs></svg><svg fill="none" viewBox="0 0 161 185" id="ilustrations_4" xmlns="http://www.w3.org/2000/svg"><path d="M67.747 95.109h-.49l1.384-.141a1.591 1.591 0 00-.894.14zM59.036 111.922a136.969 136.969 0 00-6.72-19.13c-4.299-9.607-4.79-14.665-8.049-18.875-3.259-4.21-11.537-21.729-13.816-26.222-2.279-4.492-5.423-5.397-6.375-7.6a4.76 4.76 0 01-.83-2.865 4.773 4.773 0 011.043-2.797 4.938 4.938 0 012.518-1.668 5.03 5.03 0 013.038.096C33.278 34.95 34.028 41.79 35.99 46a113.261 113.261 0 0011.538 16.784 62.418 62.418 0 018.192 15.485c.49 1.525 12.432 18.705 13.326 24.102.894 5.397-10.01 9.551-10.01 9.551z" fill="#E5C3B7"/><path d="M85.602 79.936s7.643-3.137 9.316 6.018c.75 4.012-3.173 8.166-1.76 13.393.047.636.262 1.249.624 1.779.362.53.858.958 1.44 1.243a3.821 3.821 0 003.706-.196s-1.183 2.43-3.144 2.826a4.142 4.142 0 01-2.95-.491 3.996 3.996 0 01-1.81-2.335c-.13.982.084 1.978.606 2.826a5.089 5.089 0 003.433 1.695 4.9 4.9 0 01-4.846-.509 8.67 8.67 0 01-2.567-4.238 13.844 13.844 0 01-.116-4.888 4.743 4.743 0 01-2.654 1.243 3.728 3.728 0 01-2.026-.384 3.632 3.632 0 01-1.493-1.396 5.87 5.87 0 003.177-.624 5.718 5.718 0 002.333-2.202 7.298 7.298 0 001.448-2.684c.287-.984.361-2.016.217-3.03a7.252 7.252 0 00-1.052-2.856 7.416 7.416 0 00-2.142-2.195c-2.135-1.696.26-2.995.26-2.995z" fill="#353535"/><path d="M65.872 76.29c1.125-.17 1.788-.17 2.538-1.271a7.604 7.604 0 012.266-1.912 7.754 7.754 0 012.84-.914c3.404 0 3.836.763 3.836.763 1.702 1.978 1.558 10.568.837 11.953a33.397 33.397 0 01-5.308 8.476c-1.47 1.47-1.067 2.063-.519 3.589l-8.653-.594c.72-.593 1.903-1.13 2.105-2.175.202-1.046.318-1.441.375-2.176a9.387 9.387 0 00-.144-1.808c0-.594.173-1.13-.173-1.413-.346-.283-2.884-2.063-2.884-2.063s-.866-.593-1.558-1.158c-.692-.565-1.442-2.289-.635-2.826.808-.537.52-.621.462-.932-.058-.311 0-.678.462-.763 0-.48-.347-.933.317-.961.663-.028.865-.31.692-1.187-.173-.876-.865-1.44-.375-1.808a12.058 12.058 0 013.52-.82z" fill="#E5C3B7"/><path d="M62.872 97.37s4.615-.622 4.875-2.261a9.278 9.278 0 00-.26-3.702 3.51 3.51 0 00-.576-1.776 3.61 3.61 0 00-1.414-1.247c-.462-.226-2.625-1.47-2.625-1.47.924.868 1.694 1.88 2.279 2.996 1.529 2.769-2.279 7.46-2.279 7.46z" fill="#FFA08D"/><path d="M74.987 72.334a26.666 26.666 0 00-2.105 6.188 7.037 7.037 0 001.182 4.521c1.73-.452 2.885.255 3.029.876a2.55 2.55 0 01.055 1.53c-.139.505-.43.956-.834 1.296a7.41 7.41 0 01-2.394 1.215 54.317 54.317 0 01-1.183 5.651 6.932 6.932 0 013.808-.65 9.97 9.97 0 006.461-2.627 10.102 10.102 0 002.562-3.422 9.912 9.912 0 00.9-4.151c.144-3.193-1.674-9.607-11.48-10.427z" fill="#444"/><path d="M65.699 163.828l-10.932-25.431s-26.249-10.596-33.345-11.302c-7.095-.707-8.018 6.216-8.451 11.133a31.092 31.092 0 001.24 10.087c.721 2.826 1.587 5.651 2.077 8.223.664 3.051 3.173 15.654.952 17.829a26.938 26.938 0 01-10.211 5.652c-7.355.734-7.5 4.492-2.884 4.266 3.23-.169 14.076 0 19.758 0 .479.008.954-.078 1.398-.252a3.607 3.607 0 001.189-.762c.341-.329.612-.721.797-1.153.184-.432.28-.896.28-1.365 0-1.667-1.53-3.814-1.645-6.386 0-3.277 2.74-16.558 1.875-22.605a26.01 26.01 0 00-.952-4.125 21.197 21.197 0 00-1.73-4.154l22.47 12.377a82.994 82.994 0 0018.114 7.968z" fill="#E5C3B7"/><path d="M60.305 144.077c1.413-1.809 4.846-11.105 2.567-16.954s-6.144-13.958-3.23-20.005a41.694 41.694 0 0110.181-11.726 5.212 5.212 0 00-1.182-.34l-1.385.142a18.895 18.895 0 00-9.057 5.51c-5.279 5.199-9.403 7.375-7.99 13.308.721 3.052 2.163 6.725 3.202 11.048a40.44 40.44 0 01.923 5.652c.144 1.412.26 4.379.433 7.714a42.566 42.566 0 000 8.476 16.447 16.447 0 005.538-2.825z" fill="#232121"/><path d="M62.872 161.878c.721.565 1.529 1.13 2.394 1.695a19.463 19.463 0 01-2.884-11.048 138.22 138.22 0 0018.922-7.177 60.117 60.117 0 01-3.865-7.883 24.39 24.39 0 00-2.885-1.922 36.451 36.451 0 01-2.048-3.616 10.513 10.513 0 01-.807-5.228 42.542 42.542 0 014.297-10.285c.52-1.265.85-2.598.981-3.956.462-4.803 2.423-9.918-.346-12.46a31.829 31.829 0 00-4.327-3.391c-.739-.491-1.532-.899-2.365-1.215a41.694 41.694 0 00-10.182 11.726c-2.884 6.047.98 14.128 3.23 20.005 2.25 5.877-1.153 15.145-2.567 16.954a16.453 16.453 0 01-5.451 2.825 29.991 29.991 0 001.269 6.16 18.737 18.737 0 006.634 8.816z" fill="#E4AB39"/><path d="M159.993 179.001c-.866-3.701-3.75-10.85-5.337-12.009-1.586-1.158-4.182-1.384-8.018.311-5.769 2.487-20.682 1.272-22.845 1.131a47.935 47.935 0 00-17.769 1.582c-2.884-1.752-16.24-10.85-19.556-19.13a33.121 33.121 0 00-8.884-13.28 13.22 13.22 0 00-8.942 2.826c-6.375 4.662-8.307 14.778-3.375 23.17 9.346 6.329 30.864 18.507 35.248 19.355a35.829 35.829 0 0017.682-1.384c1.154-.255 13.297-3.306 21.085-4.606 3.606-.594 13.153-3.617 13.673 2.599.23 2.6-1.731 2.035-2.885 2.826-1.154.791-.894 1.78 2.885 1.893 5.278 0 8.018-1.328 7.038-5.284z" fill="#E5C3B7"/><path d="M44.758 19.863c-1.904 2.825-4.875 4.238-6.635 3.108-1.76-1.13-1.644-4.323.375-7.177 2.02-2.854 4.875-4.239 6.635-3.108 1.759 1.13 1.5 4.323-.376 7.177z" fill="#1EB5D8"/><path d="M71.352 96.183a33.345 33.345 0 00-8.826 7.855 24.653 24.653 0 00-3.837 10.596 13.177 13.177 0 011.068-10.144c2.083-4.113 5.619-7.346 9.95-9.098l1.645.79zM55.084 148.767l-.23-2.204s2.884.368 6-4.944a19.271 19.271 0 002.74-8.703c.44 2.311.374 4.687-.193 6.972a16.474 16.474 0 01-3.096 6.28c-2.884 3.532-5.22 2.599-5.22 2.599z" fill="#fff"/><path d="M57.882 142.749c.43 0 .78-.342.78-.763a.771.771 0 00-.78-.763.771.771 0 00-.779.763c0 .421.35.763.78.763zM61.4 136.731c.431 0 .78-.342.78-.763a.771.771 0 00-.78-.764.771.771 0 00-.778.764c0 .421.349.763.779.763zM61.401 114.013a.75.75 0 01-.133.426.778.778 0 01-.808.319.781.781 0 01-.398-.217.755.755 0 01.15-1.177.79.79 0 01.971.119c.14.142.218.332.218.53zM62.93 108.446a.77.77 0 00.779-.763.771.771 0 00-.779-.763.771.771 0 00-.779.763.77.77 0 00.78.763zM59.873 139.81a.77.77 0 00.778-.763.771.771 0 00-.778-.763.771.771 0 00-.78.763.77.77 0 00.78.763zM62.18 133.651c.43 0 .779-.342.779-.763a.77.77 0 00-.779-.763.77.77 0 00-.779.763c0 .421.349.763.78.763zM62.497 110.791a.757.757 0 01-.238.522.784.784 0 01-.54.213.785.785 0 01-.453-.263.757.757 0 01.453-1.235c.206 0 .404.08.55.224a.754.754 0 01.228.539zM64.805 105.762c.43 0 .779-.342.779-.763a.77.77 0 00-.779-.763.77.77 0 00-.779.763c0 .421.35.763.78.763z" fill="#fff"/><path d="M80.9 171.513s1.529-3.447 2.567-6.498a31.064 31.064 0 01-.923-4.098c-.317-2.825 1.846-17.999 1.818-31.392 0-3.278-2.135-24.555-5.77-29.528-3.634-4.973-7.845-3.503-8.653-2.486-1.327 2.006-4.817 4.408-2.884 11.302 2.423 8.873 7.528 21.362 7.99 23.933 1.038 5.877-2.51 6.499-.895 14.609a149.451 149.451 0 012.885 16.021c.635 1.356 1.5 3.221 1.904 4.379a34.881 34.881 0 001.961 3.758z" fill="#232121"/><path d="M78.708 181.544c2.279 2.402 5.019-1.3 5.51-6.781.33-3.268.076-6.567-.75-9.749-1.04 3.052-2.568 6.499-2.568 6.499a34.823 34.823 0 01-1.817-3.814c-.404-1.159-1.27-3.024-1.904-4.38v.424c-.029 3.249-4.442 11.585 1.529 17.801z" fill="#D3A197"/><path d="M26.429 42.78a13.521 13.521 0 00-7.207-.807l-.257.61 12.909 5.194.256-.61a13.205 13.205 0 00-5.701-4.388z" fill="#FED100"/><path d="M33.601 48.4l-16.29-6.537-4.259 10.1 16.29 6.536 4.259-10.1z" fill="#97512C"/><path d="M30.528 58.934l-18.594-7.493-.647 1.54 18.594 7.493.647-1.54z" fill="#7C3E25"/><path d="M31.775 33.509a3.978 3.978 0 01-2.57-1.03l.002-.006c.315-.746.282-1.668-.21-2.504l-.01-.012a17.611 17.611 0 01-2.99-9.14 39.74 39.74 0 013.122-17.173l23.518 9.433a40.626 40.626 0 01-10.171 14.348 18.536 18.536 0 01-8.719 4.442l-.016.002c-.952.256-1.641.889-1.956 1.635v.005z" fill="#FED100"/><path d="M31.625 33.431c-.139.33-.204.685-.19 1.04.015.355.107.702.272 1.016.08.169.106.358.075.543a.935.935 0 01-.25.494.956.956 0 01-1.041.222l-2.64-1.059a.92.92 0 01-.58-.873.928.928 0 01.18-.522.953.953 0 01.445-.333c.344-.11.66-.294.926-.537a2.48 2.48 0 00.615-.868l2.188.877z" fill="#FED100"/><path d="M28.29 44.41a8.374 8.374 0 01-4.374-1.755l.014-.018.598-1.419a11.624 11.624 0 003.189-5.638l2.972 1.193a11.535 11.535 0 00-1.8 6.195l-.598 1.42-.002.022z" fill="#FFDB31"/><path d="M23.111 27.22a2.658 2.658 0 01-1.376-1.252.919.919 0 01-.052-.713.962.962 0 011.52-.431c.094.078.17.175.227.285a.789.789 0 00.415.376.824.824 0 00.714-.046.829.829 0 00.411-.582 2.665 2.665 0 00-.19-1.36 1.384 1.384 0 01-.112-.249L20.015 13.05c-1.541-3.378-1.843-7.821.96-10.13a4.491 4.491 0 012.065-.94 4.448 4.448 0 012.253.19l.063.025.071.028.062.025a4.194 4.194 0 011.817 1.537c.443.675.679 1.463.68 2.271 0 .809-.234 1.603-.675 2.289a4.337 4.337 0 01-1.815 1.582.96.96 0 01-.725.036.924.924 0 01-.56-1.196.956.956 0 01.492-.531c.418-.195.77-.504 1.017-.89.246-.386.374-.833.37-1.287a2.31 2.31 0 00-.396-1.27 2.338 2.338 0 00-1.034-.847 2.51 2.51 0 00-1.29-.124 2.538 2.538 0 00-1.187.535c-2.025 1.662-1.642 5.268-.438 7.912l4.665 10.23a.83.83 0 01.033.078c.008.023.026.049.038.074a4.512 4.512 0 01.363 2.457 2.694 2.694 0 01-.45 1.127 2.752 2.752 0 01-2.077 1.177 2.735 2.735 0 01-1.205-.189v.001zm1.567-3.944l.005.002-.005-.002zM38.412 30.522c.086-.204.197-.398.33-.576.003-.007.01-.013.014-.018a4.715 4.715 0 012.018-1.478c.025-.01.052-.019.079-.027.026-.008.049-.022.079-.033l10.693-4.068c2.762-1.053 5.635-3.352 5.399-5.922a2.41 2.41 0 00-.458-1.196 2.443 2.443 0 00-1.01-.797 2.428 2.428 0 00-2.542.523 2.38 2.38 0 00-.665 1.168 2.32 2.32 0 00.08 1.33.927.927 0 01-.033.716.96.96 0 01-1.26.465.926.926 0 01-.49-.523 4.166 4.166 0 01-.148-2.37 4.272 4.272 0 011.172-2.09 4.359 4.359 0 012.121-1.148 4.323 4.323 0 012.4.157l.062.025.071.028.064.026a4.322 4.322 0 011.736 1.412c.443.613.714 1.331.788 2.084.326 3.564-3.092 6.515-6.624 7.857l-10.657 4.055c-.083.041-.17.075-.26.1a2.78 2.78 0 00-1.117.836.817.817 0 00-.124.696.798.798 0 00.473.523c.18.074.382.08.568.018a.956.956 0 01.707.065.924.924 0 01.405 1.234.96.96 0 01-.53.474 2.752 2.752 0 01-1.526.06 2.68 2.68 0 01-1.308-.763 2.631 2.631 0 01-.676-1.343 2.658 2.658 0 01.17-1.5h-.001zm3.182-.384l.003.002-.003-.002z" fill="#FED100"/><path d="M33.575 6.704L29.61 5.11a32.297 32.297 0 00-2.552 12.234 18.298 18.298 0 016.517-10.641z" fill="#FFDF5A"/><path d="M13.052 51.963l16.291 6.536 4.258-10.098s-9.703 7.913-20.549 3.562z" fill="#8D492B"/><path d="M30.42 49.844L18.53 45.072l-2.434 5.777 11.888 4.771 2.434-5.776z" fill="#FED100"/><path d="M21.095 4.34a4.781 4.781 0 012.198-1 4.736 4.736 0 012.398.201l.07.029.072.028.066.026a4.47 4.47 0 011.203.78 3.743 3.743 0 00-1.892-1.85l-.056-.023-.061-.024-.058-.023a3.995 3.995 0 00-2.023-.171 4.034 4.034 0 00-1.853.843c-1.154.951-1.722 2.306-1.865 3.786a5.877 5.877 0 011.801-2.602z" fill="#FFDF5A"/><path d="M26.875 25.572a17.61 17.61 0 002.14 4.39l.01.013c.493.835.526 1.757.211 2.502l-.002.005c.7.637 1.61 1.003 2.567 1.03l.002-.005c.314-.746 1.002-1.378 1.954-1.634l.016-.002a18.514 18.514 0 008.71-4.438A40.589 40.589 0 0052.636 13.1C38.848 31.41 26.931 25.595 26.875 25.572z" fill="#FCC200"/><path d="M41.215 22.566a5.769 5.769 0 00-1.905-8.046c-2.788-1.677-6.456-.795-8.193 1.97a5.769 5.769 0 001.904 8.046c2.789 1.678 6.457.796 8.194-1.97z" fill="#FFF3C0"/><path d="M33.939 23.381l2.741-6.508-1.196-.48.609-1.446 2.82 1.133-3.35 7.953-1.624-.652z" fill="#D69A13"/><path d="M24.2 38.508s1.01 3.645 6.086 1.186c5.076-2.458 4.096-6.81.404-7.685-2.423-.537-7.788 1.695-6.49 6.499z" fill="#E5C3B7"/></svg><svg fill="none" viewBox="0 0 137 191" id="ilustrations_5" xmlns="http://www.w3.org/2000/svg"><path d="M70.486 50.226c-.474-1.398.642-9.43 2.483-10.965 0 0 .53-.74 3.682-.22a7.096 7.096 0 014.24 3.235c.557 1.152 1.171 1.207 2.203 1.536 1.18.235 2.318.641 3.375 1.206.419.41-.446 1.151-.585 1.617-.14.466 0 1.097.474 1.206.474.11.307.549.14.96.446 0 .446.383.306.767s-.195.384.307.932c.502.549 0 2.084-1.004 2.742-1.004.658-1.2.658-1.618.85-.418.191-2.176.904-2.622 1.041-1.45.439-1.59 1.508-1.59 2.577 0 1.07 4.351 4.085 4.937 4.99.251 1.562-3.933 3.07-3.933 3.07H69.705c.697-.686 3.264-.795 4.184-2.303a3.867 3.867 0 00.363-4.688 31.001 31.001 0 01-3.766-8.553z" fill="#E5C3B7"/><path d="M83.931 64.563a22.29 22.29 0 01-3.682-6.963c0-1.069.14-2.138 1.59-2.576.446-.137 2.622-1.042 2.622-1.042-.543.261-.998.67-1.311 1.179-.279.41-1.004 3.262 2.79 6.908a18.66 18.66 0 01-2.009 2.494z" fill="#D3A197"/><path d="M59.19 46.06c.005.828.26 1.636.732 2.322a4.255 4.255 0 001.921 1.533c.78.313 1.638.392 2.464.227a4.292 4.292 0 002.178-1.154 4.173 4.173 0 001.16-2.148 4.127 4.127 0 00-.248-2.42 4.21 4.21 0 00-1.572-1.877 4.321 4.321 0 00-2.368-.705 4.333 4.333 0 00-3.02 1.246 4.185 4.185 0 00-1.247 2.975z" fill="#353535"/><path d="M75.312 38.877c.6 1.97.946 4.005 1.032 6.059a6.52 6.52 0 01-1.701 4.057c-1.562-.658-2.65-.165-2.957.384a2.43 2.43 0 00.363 2.741 7.027 7.027 0 002.036 1.453s0 3.865.279 5.483a6.661 6.661 0 00-3.46-1.125 9.373 9.373 0 01-5.578-3.316 9.35 9.35 0 01-1.91-3.54 9.246 9.246 0 01-.238-3.999c.251-3.015 2.845-8.772 12.134-8.197z" fill="#444"/><path d="M25.8 62.562s-2.399-2.576-4.156-2.741c-1.757-.164-6.137 2.33-7.894 2.33-1.758 0-6.025.33-4.38 1.343a7.303 7.303 0 004.575.878c1.933-.37 3.89-.599 5.858-.686a12.242 12.242 0 013.32 2.111l2.677-3.235zM54.838 118.183c-.92 4.414-2.287 15.79-3.236 17.901-1.952 4.386-4.853 9.293-5.188 15.214-.25 4.277-.948 23.822-2.51 27.085-1.032 2.138-1.256 4.386 0 5.208 2.148 1.48 4.407.192 6.415 0a38.874 38.874 0 006.22-.822c1.73-.494 4.38-1.974 1.981-2.742-1.339-.493-7.057-1.014-7.56-3.344-.752-3.591 4.827-23.521 5.58-27.029.67-3.098 2.343-3.92 5.244-9.595.697-1.371 2.008-3.701 3.459-6.195-1.73-2.139-9.93-12.775-10.405-15.681z" fill="#E5C3B7"/><path d="M57.934 107.849s-1.785 6.688-2.789 8.772c0 .301-.251.85-.418 1.562 1.835 6.075 5.454 11.482 10.404 15.544 2.79-4.88 6.22-10.417 6.22-10.417l-13.417-15.461z" fill="#D3A197"/><path d="M57.878 103.792a13.506 13.506 0 00-1.283 5.743c0 1.983.438 3.942 1.283 5.743a72.673 72.673 0 0016.737 18.997 50.708 50.708 0 018.703 8.005 88.74 88.74 0 010 12.089c0 2.467 2.315 15.68 2.12 17.489a8.244 8.244 0 01-2.79 3.454c-1.06.658-2.483 2.934-.753 4.441 1.088.96 3.347 2.276 4.044 3.591a47.809 47.809 0 011.758 4.907c.272.578.71 1.065 1.26 1.401.55.336 1.189.507 1.836.491h5.188c1.507 0 1.59-1.261.252-2.358a10.393 10.393 0 00-4.045-1.645c-1.004 0 .502-9.238-.753-13.706-1.256-4.468 0-12.446 0-16.229a88.249 88.249 0 012.287-12.171 8.625 8.625 0 00.134-4.133 8.702 8.702 0 00-1.808-3.734c-2.79-4.003-13.947-22.945-15.62-24.672-1.674-1.727-9.261-11.925-18.55-7.703zM113.946 23.033c.488-.068.986.015 1.425.235.439.221.799.57 1.029.998.614 1.234 1.507.878 1.004 2.467-.362 1.124 3.766 3.51 4.101 2.413a10.48 10.48 0 012.455-4.277 22.557 22.557 0 001.394-3.837s-5.858-1.782-6.332-1.234c-.474.548-4.993 1.617-6.415 2.44-.67.384.781.795 1.339.795z" fill="#E5C3B7"/><path d="M63.234 64.892a11.905 11.905 0 0110.042-.877c8.062 2.742 12.608.439 11.52-3.344a4.72 4.72 0 001.823.871 4.768 4.768 0 002.027.033c1.032-.219 1.674-1.041 3.654-2.74 3.375-2.742 13.947-4.606 17.434-10.966 2.455-4.578 4.072-14.721 7.671-21.218a9.754 9.754 0 004.1 2.604c-1.952 7.347-3.291 18.312-5.16 23.822-1.2 3.537-7.42 9.513-11.744 12.117-3.319 2.001-8.898 3.043-8.619 7.758.39 6.963-3.096 16.448-8.647 26.015-2.79 4.77-3.543 9.677-8.703 15.899-7.81-3.07-15.314 2.522-22.315-7.428 3.403-8.718 5.578-9.294 12.859-12.912 2.79-1.398 3.459-5.29 2.26-8.937-1.702-5.126-1.619-7.895-4.018-8.936a8.485 8.485 0 00-8.954.356 69.527 69.527 0 01-12.72 3.125c-3.095.603-18.242-8.224-23.988-15.022a13 13 0 013.068-3.838c2.566 1.233 10.07 5.894 14.143 7.73 3.626 1.618 6.555 4.057 7.838 3.262 7.252-4.632 12.831-5.318 16.43-7.374z" fill="#232121"/><path d="M68.701 77.502a47.004 47.004 0 007.28 8.882 17.897 17.897 0 017.141 9.567c1.395 4.688-.808 13.433-.808 13.433l-1.73 2.741s1.869-9.156.53-13.953c-1.339-4.797-8.647-8.224-9.15-10.39a96.551 96.551 0 00-3.263-10.28z" fill="#E4AB39"/><path d="M71.909 94.499a13.27 13.27 0 002.79 9.622 29.147 29.147 0 013.988 10.636s2.26-8.553-.334-11.267a36.793 36.793 0 01-6.444-8.991zM78.52 67.634s-1.506 7.292.78 10.965a58.892 58.892 0 016.723 14.035 41.81 41.81 0 01-1.199 11.459s1.925-4.222 2.51-5.263c1.897-3.4.81-13.186-2.566-19.463-3.375-6.278-6.248-11.733-6.248-11.733z" fill="#E4AB39"/><path d="M118.548 18.29c-.753 0-3.403.905-1.395 2.55a12.495 12.495 0 006.806 1.809c1.897.027 4.631-4.359-5.411-4.359z" fill="#E5C3B7"/><path d="M102 17.308c0-.499 1.418-.957 3.785-1.318-2.244-.821-3.541-1.536-3.439-2.04.103-.505 1.601-.65 4.008-.543-2.043-1.26-3.18-2.235-2.971-2.702.179-.41 1.395-.348 3.315.093-1.43-1.332-2.152-2.307-1.9-2.67.253-.364 1.732-.032 3.926.954-1.439-1.906-2.106-3.224-1.733-3.567.373-.343 1.683.289 3.615 1.684-.996-2.136-1.389-3.555-.972-3.829.417-.274 1.606.643 3.23 2.4-.541-2.308-.635-3.784-.162-3.971.426-.165 1.239.724 2.281 2.367-.052-1.935.13-3.117.588-3.206.493-.104 1.239 1.179 2.081 3.402.367-2.344.837-3.748 1.348-3.748.511 0 .975 1.392 1.342 3.716.837-2.203 1.579-3.46 2.079-3.376.499.084.672 1.571.552 3.936 1.28-2.019 2.275-3.117 2.745-2.918.417.176.358 1.372-.094 3.255 1.356-1.404 2.349-2.113 2.719-1.868.425.288.032 1.704-.972 3.858 1.935-1.413 3.288-2.068 3.649-1.702.362.367-.314 1.653-1.714 3.55 2.178-.978 3.62-1.364 3.899-.946.279.418-.67 1.577-2.455 3.163 2.349-.53 3.852-.623 4.043-.159.168.418-.737 1.217-2.41 2.24 1.97-.051 3.174.128 3.265.577.105.493-1.201 1.226-3.462 2.053 2.384.36 3.817.822 3.817 1.324 0 .501-1.418.957-3.785 1.317 2.243.822 3.524 1.552 3.438 2.042-.085.49-1.6.66-4.007.542 2.055 1.257 3.174 2.234 2.971 2.696-.179.41-1.398.349-3.315-.093 1.43 1.333 2.152 2.307 1.903 2.67-.294.419-1.735.032-3.929-.954 1.427 1.912 2.105 3.23 1.744 3.584-.361.355-1.697-.317-3.629-1.692.996 2.139 1.389 3.555.963 3.829-.425.273-1.606-.643-3.229-2.4.54 2.307.634 3.784.161 3.97-.426.165-1.239-.723-2.281-2.366.053 1.934-.129 3.117-.587 3.206-.5.104-1.248-1.18-2.091-3.4-.367 2.342-.837 3.749-1.348 3.749-.51 0-.974-1.393-1.341-3.717-.82 2.189-1.548 3.472-2.062 3.362-.513-.11-.66-1.571-.552-3.927-1.28 2.018-2.275 3.117-2.742 2.918-.42-.176-.358-1.37.091-3.255-1.356 1.404-2.349 2.113-2.719 1.868-.37-.245-.023-1.712.972-3.866-1.946 1.401-3.288 2.067-3.649 1.712-.362-.354.305-1.663 1.726-3.56-2.176.977-3.62 1.363-3.899.945-.279-.418.655-1.577 2.443-3.171-2.349.53-3.852.622-4.043.155-.168-.415.737-1.214 2.41-2.237-1.97.052-3.174-.127-3.265-.577-.105-.476 1.201-1.208 3.465-2.036-2.387-.36-3.817-.821-3.817-1.323zM0 62.481c0-.499 1.418-.957 3.785-1.318C1.54 60.342.244 59.627.346 59.122c.103-.505 1.6-.649 4.008-.542-2.043-1.26-3.18-2.235-2.971-2.702.179-.41 1.395-.349 3.315.093-1.43-1.333-2.152-2.307-1.9-2.67.253-.364 1.732-.032 3.926.954-1.439-1.906-2.106-3.224-1.733-3.567.373-.343 1.683.289 3.615 1.684-.996-2.136-1.39-3.555-.972-3.829.417-.274 1.606.643 3.23 2.399-.54-2.307-.635-3.783-.162-3.97.426-.165 1.24.723 2.281 2.367-.052-1.935.13-3.117.588-3.206.493-.104 1.239 1.179 2.081 3.402.367-2.344.837-3.748 1.348-3.748.51 0 .975 1.392 1.342 3.716.837-2.203 1.58-3.46 2.079-3.376.499.084.672 1.571.552 3.936 1.28-2.019 2.275-3.117 2.745-2.918.417.175.358 1.372-.094 3.255 1.356-1.404 2.349-2.114 2.719-1.868.425.288.032 1.704-.972 3.857 1.935-1.412 3.288-2.067 3.65-1.7.36.365-.315 1.651-1.715 3.549 2.178-.978 3.62-1.364 3.899-.946.279.418-.67 1.577-2.455 3.163 2.35-.53 3.852-.623 4.043-.159.168.418-.737 1.217-2.41 2.24 1.97-.051 3.174.128 3.265.577.105.493-1.201 1.226-3.462 2.053 2.384.36 3.817.822 3.817 1.324 0 .501-1.418.957-3.785 1.317 2.244.822 3.524 1.552 3.439 2.042-.086.49-1.6.66-4.008.542 2.055 1.257 3.174 2.234 2.971 2.696-.18.41-1.398.349-3.315-.093 1.43 1.333 2.152 2.307 1.903 2.67-.294.418-1.735.032-3.929-.954 1.427 1.912 2.105 3.23 1.744 3.584-.36.355-1.697-.317-3.629-1.692.996 2.139 1.39 3.555.963 3.829-.425.273-1.606-.643-3.23-2.4.54 2.307.635 3.784.162 3.971-.426.164-1.239-.724-2.281-2.367.053 1.934-.13 3.117-.587 3.206-.5.104-1.248-1.18-2.091-3.4-.367 2.342-.837 3.749-1.348 3.749-.51 0-.974-1.393-1.341-3.717-.82 2.189-1.548 3.472-2.062 3.362-.513-.11-.66-1.571-.552-3.927-1.28 2.019-2.275 3.117-2.742 2.918-.42-.176-.358-1.37.091-3.255-1.356 1.404-2.349 2.113-2.719 1.868-.37-.245-.023-1.712.972-3.866-1.946 1.401-3.288 2.067-3.65 1.712-.36-.354.306-1.663 1.727-3.56-2.176.977-3.62 1.363-3.9.945-.278-.418.656-1.577 2.444-3.171-2.35.53-3.852.622-4.043.155-.168-.415.737-1.214 2.41-2.237-1.97.052-3.174-.127-3.265-.577-.105-.476 1.201-1.208 3.465-2.036C1.43 63.444 0 62.983 0 62.481z" fill="#E4AB39"/></svg><svg fill="none" viewBox="0 0 100 161" id="ilustrations_6" xmlns="http://www.w3.org/2000/svg"><path d="M10.504 98.011a12.229 12.229 0 011.9 6.465 41.131 41.131 0 000 5.343h8.412s3.609-8.762-.407-11.193a14.373 14.373 0 00-9.905-.615z" fill="#D3A197"/><path d="M45.049 104.503c.624-.935.868-1.523 2.198-1.763a7.417 7.417 0 002.654-1.222 7.272 7.272 0 001.959-2.144c1.465-3.019.868-3.767.868-3.767-1.14-2.297-9.118-5.69-10.692-5.61a34.699 34.699 0 00-9.931 1.283c-.85.276-1.763.31-2.632.096a4.767 4.767 0 01-2.28-1.298l-1.845 6.49c1.03.161 2.035.482 3.093.749.724.15 1.44.337 2.144.56a8.181 8.181 0 011.601.856c.624.133 1.113.293 1.248.72.136.428.733 3.42.733 3.42 0 .481.19 1.042.407 1.87.217.828 1.52 2.217 2.442 1.763.923-.454.76-.214 1.032 0 .27.214.624.321.895 0 .38.294.706.695 1.031 0 .326-.694.624-.641 1.384-.134.76.508.95 1.363 1.52 1.069.868-.868 1.6-1.858 2.17-2.938z" fill="#E5C3B7"/><path d="M25.564 98.278s1.276-3.579 2.877-3.125a9.466 9.466 0 013.446 1.79c.57.289 1.052.72 1.4 1.249.348.53.548 1.14.581 1.77 0 .507.299 2.911.299 2.911a11.677 11.677 0 00-1.846-3.232c-2.062-2.671-6.756-1.363-6.756-1.363z" fill="#D3A197"/><path d="M47.165 78.43a4.573 4.573 0 00-2.61.07 4.505 4.505 0 00-2.133 1.483 4.378 4.378 0 00-.366 4.908 4.475 4.475 0 001.89 1.775 4.567 4.567 0 004.962-.592 4.428 4.428 0 001.405-2.168 4.37 4.37 0 00-.416-3.383 4.454 4.454 0 00-1.154-1.315 4.532 4.532 0 00-1.578-.778z" fill="#353535"/><path d="M52.403 98.012a27.962 27.962 0 01-6.567-.668 7.228 7.228 0 01-3.718-2.885c1.14-1.363.923-2.672.461-3.046a2.753 2.753 0 00-2.85-.427 7.93 7.93 0 00-2.088 1.656s-3.99-1.095-5.753-1.309c1.14-.881 1.275-1.389 2.116-3.125a10.318 10.318 0 015.834-5.013 10.518 10.518 0 017.734.365c2.85 1.148 8.033 5.396 4.83 14.452z" fill="#444"/><path d="M19.35 49.446c1.194-2.51 1.384-12.849-.272-20.703-3.12-14.585-2.713-19.634-.352-25.965C20-.668 26.514.8 34.166 4.113c8.494 3.66 39.212 17.605 42.794 17.712 9.227.267 16.553 0 20.515 2.43 5.265 3.26-3.609 3.26-6.62 3.874a21.292 21.292 0 00-9.064 4.541c-.977.775-5.13 3.126-7.246-.908a9.777 9.777 0 00-3.457-3.388 9.966 9.966 0 00-4.684-1.34c-2.713-.187-13.568-.802-20.515-2.004a31.554 31.554 0 01-14.762-8.201s9.932 20.57 8.141 31.682c-.76 5.343.868 8.014-4.586 12.475-5.455 4.462-16.987 3.794-20.135-2.083-3.148-5.877 3.283-6.305 4.803-9.457z" fill="#E5C3B7"/><path d="M34.167 50.515a9.254 9.254 0 015.78 0c9.66 3.019 10.529 8.361 21.71 16.723a62.172 62.172 0 0116.28 18.7c1.982 3.231.924 8.387.68 10.684-.76 6.679-3.284 24.524-3.013 29.385.19 3.794-.651 14.452.679 20.035 1.33 5.584.597 7.828-1.33 5.851-.407-.401-1.601-1.87-2.035-2.298-3.148-3.285-2.226-4.915-2.904-6.999-1.357-4.113-3.175-3.178-3.663-6.01-.597-3.339 1.6-3.954 2.062-6.572.461-2.618-3.745-16.749-2.714-23.374.706-4.247 2.714-8.575 2.416-11.513-.299-2.939 0-5.664-7.002-10.125a146.737 146.737 0 01-18.37-14.933 6.782 6.782 0 00-3.385-1.489 6.827 6.827 0 00-3.671.5l-1.52-18.565z" fill="#E5C3B7"/><path d="M15.796 147.939a.368.368 0 010-.187c-.625-5.904 1.899-16.028 3.093-20.863a54.71 54.71 0 001.818-18.112c-2.84.28-5.706.118-8.494-.481-.244 3.339.326 5.343.245 8.415a117.396 117.396 0 01-1.33 17.07 93.276 93.276 0 00-.353 16.829v.855a9.814 9.814 0 005.02-3.526z" fill="#282828"/><path d="M15.117 154.751c2.713 0 6.105.508 8.927.374 2.823-.134 4.017-1.683-.162-3.66-3.745-1.763-7.599-2.457-8.141-3.526a9.813 9.813 0 01-4.912 3.526 3.783 3.783 0 001.455 2.514 3.9 3.9 0 002.833.772zM26.623 111.902c.977-.16 1.954-.374 2.713-.587.76-4.835 3.148-12.529.353-17.791a26.214 26.214 0 00-6.078-7.667l-10.15 3.366-2.957 8.788a26.428 26.428 0 019.118 11.567c.343.8.633 1.621.868 2.458 2.044.137 4.097.092 6.133-.134z" fill="#E5C3B7"/><path d="M34.03 154.751a14.22 14.22 0 01-6.268-2.431 13.855 13.855 0 01-4.803 3.419c.167.668.503 1.284.977 1.79a37.273 37.273 0 0011.967 3.339c6.866.214 4.07-4.835-1.872-6.117z" fill="#E5C3B7"/><path d="M27.763 152.32a.343.343 0 010-.187c-1.357-6.224 2.958-19.234 2.008-25.351a57.865 57.865 0 01-.543-12.689c0-.882.19-1.817.326-2.671a49.59 49.59 0 01-2.714.587 34.487 34.487 0 01-6.214 0c.244.935.488 1.95.597 2.672a49.403 49.403 0 011.031 15.44 107.59 107.59 0 00.082 19.902c.033 1.92.242 3.833.624 5.717a13.87 13.87 0 004.803-3.42zM23.72 85.857s-4.994-7.587-4.994-11.727c0-8.148 8.63-3.794 12.401-4.087 2.585.04 5.085-.901 6.985-2.627a9.85 9.85 0 003.219-6.643c.243-3.07-.58-6.132-2.334-8.682 0 0-1.574 8.441-13.948 6.785a15.47 15.47 0 01-9.335-6.357s-9.66 5.53-13.161 12.555c-2.958 6.01-2.714 19.554 2.144 26.954a28.706 28.706 0 0010.149 9.91 18.853 18.853 0 014.341-7.292 16.763 16.763 0 004.532-8.79z" fill="#232121"/><path d="M5.511 61.6S.084 69.188 4.48 75.333a15.834 15.834 0 009.335 5.61 24.795 24.795 0 01-7.381-7.347c-2.198-4.007-.923-11.994-.923-11.994z" fill="#E4AB39"/><path d="M7.654 59.33a19.422 19.422 0 00-.787 8.575 11.02 11.02 0 005.889 5.664 18.747 18.747 0 01-4.288-8.522c-.244-2.11-.814-5.717-.814-5.717zM2.01 74.85a8.59 8.59 0 00.832 4.428 8.747 8.747 0 002.967 3.427c3.039 2.03 6.377 3.152 7 5.102.87 2.671-3.065 4.114-3.065 4.114s3.473 1.229 5.02-.668a4.697 4.697 0 001.04-2.147 4.657 4.657 0 00-.153-2.373 4.72 4.72 0 00-1.307-2 4.827 4.827 0 00-2.131-1.12C7.85 81.999 4.226 78.888 2.01 74.85z" fill="#E4AB39"/></svg><svg fill="none" viewBox="0 0 40 40" id="watsapp" xmlns="http://www.w3.org/2000/svg"><circle cx="20" cy="20" r="20" fill="#E4AB39"/><path d="M27.927 12.066a10.428 10.428 0 00-7.39-3.062c-5.78 0-10.464 4.667-10.464 10.427 0 1.823.512 3.646 1.39 5.177 0 0 .885 1.892 1.87 2.725.756.64 2.228 1.213 2.228 1.213 1.537.802 3.22 1.24 4.976 1.24 5.78 0 10.463-4.668 10.463-10.428-.073-2.698-1.098-5.323-3.073-7.292zM25.585 23.15c-.22.583-1.244 1.166-1.756 1.24a4.104 4.104 0 01-1.61-.074c-.365-.145-.878-.291-1.463-.583-2.634-1.094-4.317-3.719-4.463-3.937-.147-.146-1.098-1.386-1.098-2.698 0-1.313.659-1.896.878-2.188.22-.292.512-.292.732-.292h.512c.146 0 .366-.072.585.438.22.51.732 1.823.805 1.896a.463.463 0 010 .437 1.525 1.525 0 01-.292.438c-.147.146-.293.364-.366.437-.146.146-.293.292-.146.51.146.292.658 1.095 1.463 1.824 1.024.875 1.83 1.166 2.122 1.312.293.146.439.073.585-.073.147-.146.659-.729.805-1.02.146-.292.366-.22.585-.146.22.073 1.537.729 1.757.875.292.145.439.218.512.291.073.219.073.73-.147 1.313z" fill="#fff"/></svg></svg>